# xmcd
#
# Track frame offsets: 
#        150
#        8419
#        25144
#        43744
#        64464
#        84547
#        104947
#        128944
#        145234
#        164840
#        180152
#        193174
#        208611
#        225821
#
# Disc length: 3225 seconds
#
# Revision: 0
# Processed by: cddbd v1.5.2PL0 Copyright (c) Steve Scherf et al.
# Submitted via: ExactAudioCopyFreeDBPlugin 1.0
#
DISCID=c10c970e
DTITLE=เล็ก คาราบาว - โปร่งใส(ร้อง)
DYEAR=1900
DGENRE=Thai
TTITLE0=คัมภีร์กีตาร์
TTITLE1=ขอทานเจ้าสำราญ
TTITLE2=พ่อ
TTITLE3=หนูเล็ก
TTITLE4=ดอกแก้ว
TTITLE5=เหมือนลา
TTITLE6=ลุงคำ
TTITLE7=กิเลส
TTITLE8=ลิขิตบาป
TTITLE9=เหมือนแม่
TTITLE10=อาหารจานเด็ด
TTITLE11=พูดด้วยเงิน
TTITLE12=เรือนเดิม
TTITLE13=โลกมนุษย์
EXTD=
EXTT0=
EXTT1=
EXTT2=
EXTT3=
EXTT4=
EXTT5=
EXTT6=
EXTT7=
EXTT8=
EXTT9=
EXTT10=
EXTT11=
EXTT12=
EXTT13=
PLAYORDER=
